<?xml version="1.0" encoding="utf-8"?>
<!-- Generator: Adobe Illustrator 15.0.0, SVG Export Plug-In  -->
<!DOCTYPE svg PUBLIC "-//W3C//DTD SVG 1.1//EN" "http://www.w3.org/Graphics/SVG/1.1/DTD/svg11.dtd" [
	<!ENTITY ns_flows "http://ns.adobe.com/Flows/1.0/">
]>
<svg version="1.1"
	 xmlns="http://www.w3.org/2000/svg" xmlns:xlink="http://www.w3.org/1999/xlink" xmlns:a="http://ns.adobe.com/AdobeSVGViewerExtensions/3.0/"
	 x="0px" y="0px" width="283px" height="283px" viewBox="0 0 283 283" enable-background="new 0 0 283 283" xml:space="preserve">
<defs>
</defs>
<g>
	<defs>
		<rect id="SVGID_1_" width="283.46" height="283.46"/>
	</defs>
	<clipPath id="SVGID_2_">
		<use xlink:href="#SVGID_1_"  overflow="visible"/>
	</clipPath>
	<path clip-path="url(#SVGID_2_)" fill="#005490" d="M44.046,205.827l13.898-27.357c1.257-2.495,2.319-3.031,4.195-3.031
		c2.935,0,4.098,1.968,4.098,4.1v55.97c0,2.151-1.163,4.108-4.098,4.108c-2.938,0-4.104-1.957-4.104-4.108V201.11
		c0-2.402,0.181-4.543,0.358-6.148h-0.094L45.55,219.826c-0.613,1.243-1.504,2.141-3.649,2.141c-2.131,0-3.024-0.897-3.648-2.141
		l-12.741-24.864H25.42c0.181,1.605,0.358,3.746,0.358,6.148v34.397c0,2.151-1.163,4.108-4.098,4.108
		c-2.946,0-4.104-1.957-4.104-4.108v-55.97c0-2.132,1.158-4.1,4.104-4.1c1.87,0,2.935,0.536,4.181,3.031l13.909,27.357
		c0.888,1.705,1.598,3.392,2.131,5.088C42.442,209.219,43.158,207.532,44.046,205.827"/>
	<path clip-path="url(#SVGID_2_)" fill="#005490" d="M91.908,197.195l10.696-19.438c0.971-1.883,3.122-3.029,5.433-1.699
		c2.319,1.347,2.411,3.662,1.343,5.522l-15.871,28.794v25.134c0,2.149-1.243,4.107-4.196,4.107c-2.929,0-4.18-1.958-4.18-4.107
		v-25.134l-15.869-28.794c-1.059-1.86-0.973-4.176,1.346-5.522c2.306-1.33,4.456-0.184,5.439,1.699l10.698,19.438
		c1.063,1.864,1.773,3.562,2.566,5.61C90.135,200.757,90.846,199.06,91.908,197.195"/>
	<path clip-path="url(#SVGID_2_)" fill="#005490" d="M171.503,217.241c0,11.941-7.4,21.485-20.51,21.485h-15.769
		c-3.033,0-4.284-1.967-4.284-4.103v-54.196c0-2.124,1.251-4.09,4.284-4.09h19.348c11.314,0,16.931,7.926,16.931,17.837V217.241z
		 M163.118,194.175c0-5.543-2.411-9.82-8.546-9.82h-15.247v46.341h11.667c8.118,0,12.125-5.79,12.125-13.454V194.175z"/>
	<path clip-path="url(#SVGID_2_)" fill="#005490" d="M218.451,221.779c0,9.806-5.602,17.837-16.913,17.837H195.2
		c-11.309,0-16.928-8.031-16.928-17.837v-42.242c0-2.132,1.334-4.099,4.19-4.099c3.029,0,4.189,1.967,4.189,4.099v42.242
		c0,5.537,2.405,9.806,8.548,9.806h6.338c6.146,0,8.557-4.269,8.557-9.806v-42.242c0-2.132,1.334-4.099,4.189-4.099
		c3.021,0,4.167,1.967,4.167,4.099V221.779z"/>
	<path clip-path="url(#SVGID_2_)" fill="#005490" d="M251.261,231.585c3.84,0,5.885-1.513,6.243-5.245
		c0.166-2.148,1.243-4.111,4.098-4.111c3.021,0,4.281,1.963,4.281,4.111c0,9.264-5.524,13.276-14.622,13.276h-9.078
		c-11.312,0-16.941-8.031-16.941-17.837v-28.504c0-9.818,5.63-17.838,16.941-17.838h9.078c9.098,0,14.622,4.018,14.622,13.285
		c0,2.132-1.26,4.09-4.281,4.09c-2.854,0-3.932-1.958-4.098-4.09c-0.358-3.647-2.403-5.266-6.243-5.266h-9.078
		c-6.146,0-8.557,4.286-8.557,9.818v28.504c0,5.538,2.411,9.806,8.557,9.806H251.261z"/>
	<polygon clip-path="url(#SVGID_2_)" fill="#005490" points="41.807,278.773 37.935,278.773 37.935,265.012 22.531,265.012 
		22.531,278.773 18.651,278.773 18.651,248.655 22.531,248.655 22.531,261.587 37.935,261.587 37.935,248.655 41.807,248.655 	"/>
	<path clip-path="url(#SVGID_2_)" fill="#005490" d="M82.294,264.191c0,4.616-1.346,8.353-4.029,11.207
		c-2.681,2.847-6.226,4.287-10.63,4.287c-4.29,0-7.784-1.458-10.43-4.369c-2.658-2.901-3.987-6.697-3.987-11.372
		c0-4.507,1.209-8.22,3.635-11.107c2.634-3.086,6.257-4.631,10.822-4.631c4.648,0,8.316,1.591,10.988,4.791
		C81.08,255.913,82.294,259.644,82.294,264.191 M78.365,263.814c0-3.529-0.945-6.436-2.841-8.719
		c-1.893-2.278-4.456-3.423-7.646-3.423c-3.471,0-6.166,1.195-8.087,3.588c-1.764,2.219-2.655,5.107-2.655,8.684
		c0,3.713,0.959,6.692,2.884,8.942c1.939,2.237,4.51,3.361,7.735,3.361c3.468,0,6.166-1.247,8.053-3.75
		C77.526,270.237,78.365,267.345,78.365,263.814"/>
	<path clip-path="url(#SVGID_2_)" fill="#005490" d="M116.038,270.637c0,2.694-1.091,4.883-3.265,6.541
		c-2.167,1.669-5.066,2.508-8.671,2.508c-3.806,0-6.693-0.912-8.674-2.732c-1.979-1.818-2.999-4.396-3.059-7.725h3.548
		c0.204,2.476,1.006,4.282,2.426,5.414c1.417,1.118,3.614,1.687,6.587,1.687c2.11,0,3.834-0.513,5.14-1.567
		c1.312-1.035,1.97-2.394,1.97-4.042c0-2.151-1.483-3.601-4.433-4.364l-8.173-2.164c-4.052-1.068-6.068-3.466-6.068-7.142
		c0-2.637,0.931-4.786,2.772-6.405c1.867-1.622,4.316-2.438,7.34-2.438c7.6,0,11.469,3.085,11.606,9.247h-3.671
		c-0.109-2.059-0.89-3.623-2.351-4.658c-1.297-0.938-3.041-1.407-5.244-1.407c-1.904,0-3.508,0.49-4.822,1.48
		c-1.312,1.004-1.953,2.229-1.953,3.724c0,1.983,1.323,3.313,3.963,4.002l9.422,2.474c1.621,0.445,2.955,1.343,3.998,2.678
		C115.505,267.188,116.038,268.808,116.038,270.637"/>
	<path clip-path="url(#SVGID_2_)" fill="#005490" d="M150.033,257.195c0,2.709-0.83,4.887-2.488,6.546
		c-1.48,1.519-3.313,2.271-5.484,2.271h-9.868v12.762H128.3v-30.118h13.134c2.714,0,4.845,0.835,6.407,2.477
		C149.3,252.707,150.033,254.738,150.033,257.195 M146.11,257.195c0-1.366-0.472-2.553-1.409-3.588
		c-0.934-1.014-2.039-1.522-3.305-1.522h-9.204v10.497h9.7c0.962,0,1.875-0.459,2.729-1.375
		C145.601,260.152,146.11,258.81,146.11,257.195"/>
	<rect x="162.84" y="248.656" clip-path="url(#SVGID_2_)" fill="#005490" width="3.88" height="30.118"/>
	<polygon clip-path="url(#SVGID_2_)" fill="#005490" points="201.283,252.085 191.463,252.085 191.463,278.774 187.577,278.774 
		187.577,252.085 177.663,252.085 177.663,248.656 201.283,248.656 	"/>
	<path clip-path="url(#SVGID_2_)" fill="#005490" d="M235.619,278.773h-4.287l-3.081-8.999h-11.538l-3.236,8.999h-4.135
		l10.951-30.118h4.754L235.619,278.773z M227.077,266.553l-4.431-13.253l-4.905,13.253H227.077z"/>
	<polygon clip-path="url(#SVGID_2_)" fill="#005490" points="264.81,278.773 246.106,278.773 246.106,248.655 249.984,248.655 
		249.984,275.34 264.81,275.34 	"/>
	<path clip-path="url(#SVGID_2_)" fill-rule="evenodd" clip-rule="evenodd" fill="#0091D0" d="M62.082,84.088
		c9.545-1.485,18.895-0.628,27.409,2.126l-3.073,12.4c-8.084-4.491-12.194-2.534-22.226-0.962
		c-23.078,3.603-39.024,24.405-35.579,46.469c0.015,0.05,0.023,0.083,0.038,0.133l2.279,14.651c0,0,0.965,5.77-6.203,6.884
		c-7.165,1.105-8.765-4.546-8.765-4.546l-2.168-13.854c-0.015-0.061-0.026-0.129-0.032-0.184
		C9.091,117.23,30.724,88.979,62.082,84.088"/>
	<path clip-path="url(#SVGID_2_)" fill-rule="evenodd" clip-rule="evenodd" fill="#0091D0" d="M68.064,64.816
		c0,7.723-6.561,13.999-14.654,13.999c-8.093,0-14.656-6.276-14.656-13.999c0-7.724,6.563-14.01,14.656-14.01
		C61.503,50.807,68.064,57.093,68.064,64.816"/>
	<path clip-path="url(#SVGID_2_)" fill-rule="evenodd" clip-rule="evenodd" fill="#0091D0" d="M221.378,84.088
		c-9.545-1.485-18.896-0.628-27.409,2.126l3.073,12.4c8.084-4.491,12.194-2.534,22.225-0.962
		c23.079,3.603,39.025,24.405,35.58,46.469c-0.015,0.05-0.022,0.083-0.038,0.133l-2.278,14.651c0,0-0.967,5.77,6.202,6.884
		c7.165,1.105,8.766-4.546,8.766-4.546l2.168-13.854c0.015-0.061,0.025-0.129,0.032-0.184
		C274.369,117.23,252.736,88.979,221.378,84.088"/>
	<path clip-path="url(#SVGID_2_)" fill-rule="evenodd" clip-rule="evenodd" fill="#0091D0" d="M215.396,64.816
		c0,7.723,6.562,13.999,14.654,13.999s14.656-6.276,14.656-13.999c0-7.724-6.563-14.01-14.656-14.01S215.396,57.093,215.396,64.816"
		/>
	<path clip-path="url(#SVGID_2_)" fill-rule="evenodd" clip-rule="evenodd" fill="#005490" d="M160.821,21.988
		c0,10.047-8.534,18.212-19.062,18.212c-10.533,0-19.078-8.165-19.078-18.212c0-10.062,8.545-18.214,19.078-18.214
		C152.287,3.774,160.821,11.926,160.821,21.988"/>
	<path clip-path="url(#SVGID_2_)" fill-rule="evenodd" clip-rule="evenodd" fill="#005490" d="M142.018,48.676
		c-46.098,0-83.452,34.008-83.452,75.948v23.296c0,0,1.148,8,10.14,8c11.069,0,11.859-8,11.859-8v-24.341
		c0-30.883,27.512-55.931,61.453-55.931c33.944,0,61.453,25.048,61.453,55.931c0,0.06-0.014,0.129-0.014,0.183v24.158
		c0,0,1.251,8.321,10.938,8.321c9.702,0,11.074-8.321,11.074-8.321v-23.03v-0.266C225.47,82.684,188.116,48.676,142.018,48.676"/>
</g>
</svg>
